<?xml version="1.0" encoding="utf-8"?>
<!-- Generator: Adobe Illustrator 16.0.0, SVG Export Plug-In . SVG Version: 6.00 Build 0)  -->
<!DOCTYPE svg PUBLIC "-//W3C//DTD SVG 1.1//EN" "http://www.w3.org/Graphics/SVG/1.1/DTD/svg11.dtd">
<svg version="1.1" id="Layer_1" xmlns="http://www.w3.org/2000/svg" xmlns:xlink="http://www.w3.org/1999/xlink" x="0px" y="0px"
	 width="200px" height="200px" viewBox="0 0 200 200" enable-background="new 0 0 200 200" xml:space="preserve">
<g>
	<g>
		<path fill="#2272C4" d="M147.969,101.809c-3.506,0-6.344,2.843-6.344,6.348v36.705H58.373v-36.705
			c0-3.504-2.839-6.348-6.342-6.348c-3.506,0-6.351,2.843-6.351,6.348v43.05c0,3.504,2.845,6.346,6.351,6.346h95.937
			c3.512,0,6.344-2.841,6.344-6.346v-43.05C154.311,104.652,151.479,101.809,147.969,101.809z"/>
		<path fill="#2272C4" d="M184.886,96.483L103.1,43.468c-2.092-1.357-4.795-1.361-6.888-0.005L15.121,95.777
			c-2.942,1.9-3.789,5.829-1.893,8.777c1.902,2.941,5.833,3.786,8.773,1.893l71.654-46.229v66.226c0,3.504,2.841,6.346,6.344,6.346
			s6.347-2.841,6.347-6.346V60.697l71.634,46.442c1.068,0.689,2.269,1.022,3.449,1.022c2.08,0,4.112-1.022,5.331-2.897
			C188.671,102.32,187.827,98.39,184.886,96.483z"/>
	</g>
</g>
</svg>
