<?xml version="1.0" encoding="utf-8"?>
<!-- Generator: Adobe Illustrator 16.0.0, SVG Export Plug-In . SVG Version: 6.00 Build 0)  -->
<!DOCTYPE svg PUBLIC "-//W3C//DTD SVG 1.1//EN" "http://www.w3.org/Graphics/SVG/1.1/DTD/svg11.dtd">
<svg version="1.1" id="Layer_1" xmlns="http://www.w3.org/2000/svg" xmlns:xlink="http://www.w3.org/1999/xlink" x="0px" y="0px"
	 width="460px" height="74px" viewBox="0 0 460 74" enable-background="new 0 0 460 74" xml:space="preserve">
<g>
	<path fill="#FFFFFF" d="M50,62.953c0,3.842-1.793,5.891-5.635,5.891c-3.67,0-5.633-2.049-5.633-5.891V60.99h-0.172
		c-2.049,5.293-7.086,7.854-13.146,7.854c-10.416,0-19.551-7.598-19.551-23.733c0-11.952,6.061-23.136,19.209-23.136
		c5.549,0,9.818,2.305,12.293,6.317h0.172V11.388c0-4.098,2.475-6.232,6.23-6.232c3.758,0,6.232,2.134,6.232,6.232V62.953z
		 M28.23,59.111c7.258,0,9.988-6.488,9.988-13.574c0-6.402-2.391-13.915-9.988-13.83c-7.939,0-9.902,8.025-9.902,13.83
		C18.328,52.88,21.572,58.941,28.23,59.111z"/>
	<path fill="#FFFFFF" d="M56.914,32.39c-0.428-1.365-0.855-2.731-0.855-4.609c0-3.244,2.904-5.806,6.063-5.806
		c4.609,0,5.293,2.476,6.146,6.062l6.574,27.319h0.17l5.293-24.844c1.025-4.866,2.049-8.708,7.855-8.537
		c5.891-0.171,7.086,3.586,8.195,8.537l5.379,24.844h0.17l6.146-27.319c0.77-3.586,1.537-6.062,6.148-6.062
		c3.158,0,6.061,2.562,6.061,5.806c0,1.878-0.426,3.244-0.854,4.609l-9.135,29.71c-1.793,5.891-3.158,6.744-8.111,6.744
		c-5.207,0-6.488-1.536-7.768-6.488l-6.146-24.502h-0.172l-6.146,24.502c-1.281,4.952-2.561,6.488-7.77,6.488
		c-4.951,0-6.316-0.854-8.109-6.744L56.914,32.39z"/>
	<path fill="#FFFFFF" d="M136.904,47.757c0,6.574,4.27,11.354,11.525,11.354c9.391,0,9.391-6.146,14.428-6.146
		c2.988,0,5.123,2.562,5.123,4.866c0,7.513-12.037,11.013-19.551,11.013c-17.416,0-23.99-11.781-23.99-22.623
		c0-14.514,8.795-24.246,23.564-24.246c14.342,0,22.537,10.159,22.537,20.404c0,4.269-1.279,5.378-5.463,5.378H136.904z
		 M158.76,40.586c-0.684-5.72-4.951-9.903-10.5-9.903c-6.232,0-9.988,3.842-11.355,9.903H158.76z"/>
	<path fill="#FFFFFF" d="M179.248,11.388c0-4.098,2.475-6.232,6.232-6.232c3.756,0,6.23,2.134,6.23,6.232v51.224
		c0,4.098-2.475,6.231-6.23,6.231c-3.758,0-6.232-2.134-6.232-6.231V11.388z"/>
	<path fill="#FFFFFF" d="M202.98,11.388c0-4.098,2.475-6.232,6.232-6.232c3.756,0,6.23,2.134,6.23,6.232v51.224
		c0,4.098-2.475,6.231-6.23,6.231c-3.758,0-6.232-2.134-6.232-6.231V11.388z"/>
	<path fill="#FFFFFF" d="M242.762,21.975c9.477,0,19.039,3.756,19.039,9.477c0,2.902-1.963,5.464-5.209,5.464
		c-4.865,0-5.035-5.721-12.891-5.721c-4.354,0-7.172,1.195-7.172,3.842c0,2.903,2.818,3.586,6.66,4.439l5.207,1.195
		c7.086,1.622,15.539,4.61,15.539,13.318c0,10.159-9.818,14.854-19.209,14.854c-11.27,0-20.66-5.036-20.66-11.184
		c0-2.731,1.535-5.208,5.037-5.208c5.377,0,5.891,7.684,15.109,7.684c4.439,0,7.258-1.963,7.258-4.524
		c0-3.159-2.732-3.671-7.172-4.781l-7.342-1.792c-7.256-1.793-12.891-4.781-12.891-13.147
		C224.066,25.73,234.141,21.975,242.762,21.975z"/>
	<path fill="#FFFFFF" d="M271.871,11.388c0-4.098,2.477-6.232,6.232-6.232c3.758,0,6.232,2.134,6.232,6.232v17.16h0.172
		c2.475-3.244,6.83-6.573,13.916-6.573c7.512,0,15.707,3.756,15.707,16.392v24.246c0,3.329-1.365,6.231-6.232,6.231
		c-4.865,0-6.23-2.902-6.23-6.231V40.842c0-5.037-2.477-8.623-7.855-8.623c-4.354,0-9.477,3.586-9.477,9.818v20.575
		c0,3.329-1.365,6.231-6.232,6.231c-4.865,0-6.232-2.902-6.232-6.231V11.388z"/>
	<path fill="#FFFFFF" d="M365.438,55.697c0,5.207,1.279,6.402,1.279,8.366c0,2.817-2.646,4.78-5.633,4.78
		c-5.379,0-7.172-3.414-7.344-7.256c-4.865,5.378-10.5,7.256-17.074,7.256c-7.086,0-14.086-4.866-14.086-12.72
		c0-10.33,7.854-13.233,17.416-14.343l7.598-0.854c2.988-0.342,5.379-1.025,5.379-4.61c0-3.586-3.672-5.123-7.854-5.123
		c-9.221,0-9.477,6.83-14.43,6.83c-3.158,0-5.293-2.22-5.293-4.78c0-4.952,7.002-11.27,19.807-11.27
		c11.953,0,20.234,3.842,20.234,12.806V55.697z M352.973,46.732c-1.365,1.281-3.928,1.708-5.379,1.964l-4.523,0.683
		c-5.209,0.769-8.025,2.391-8.025,6.147c0,2.817,2.646,5.122,6.914,5.122c6.83,0,11.014-4.439,11.014-9.05V46.732z"/>
	<path fill="#FFFFFF" d="M376.875,27.78c0-3.757,2.475-5.806,5.635-5.806c3.158,0,5.635,2.049,5.635,5.806v4.78h0.17
		c1.451-5.208,4.268-10.586,10.33-10.586c3.928,0,6.83,2.562,6.83,6.062c0,4.61-3.074,6.232-6.146,6.232h-2.221
		c-5.037,0-7.77,3.5-7.77,13.83v14.514c0,3.329-1.365,6.231-6.23,6.231c-4.867,0-6.232-2.902-6.232-6.231V27.78z"/>
	<path fill="#FFFFFF" d="M420.5,47.757c0,6.574,4.268,11.354,11.525,11.354c9.391,0,9.391-6.146,14.428-6.146
		c2.988,0,5.121,2.562,5.121,4.866c0,7.513-12.037,11.013-19.549,11.013c-17.416,0-23.99-11.781-23.99-22.623
		c0-14.514,8.793-24.246,23.563-24.246c14.342,0,22.539,10.159,22.539,20.404c0,4.269-1.281,5.378-5.465,5.378H420.5z
		 M442.355,40.586c-0.684-5.72-4.953-9.903-10.502-9.903c-6.232,0-9.988,3.842-11.354,9.903H442.355z"/>
</g>
</svg>
