<?xml version="1.0" encoding="utf-8"?>
<!-- Generator: Adobe Illustrator 16.0.0, SVG Export Plug-In . SVG Version: 6.00 Build 0)  -->
<!DOCTYPE svg PUBLIC "-//W3C//DTD SVG 1.1//EN" "http://www.w3.org/Graphics/SVG/1.1/DTD/svg11.dtd">
<svg version="1.1" id="Layer_1" xmlns="http://www.w3.org/2000/svg" xmlns:xlink="http://www.w3.org/1999/xlink" x="0px" y="0px"
	 width="487px" height="193.595px" viewBox="0 0 487 193.595" enable-background="new 0 0 487 193.595" xml:space="preserve">
<g>
	<g>
		<path d="M168.456,67.27c-2.781,0-5.035,2.255-5.035,5.034v29.114H97.39V72.304c0-2.779-2.254-5.034-5.034-5.034
			c-2.781,0-5.034,2.255-5.034,5.034v34.149c0,2.779,2.253,5.033,5.034,5.033h76.099c2.781,0,5.034-2.254,5.034-5.033V72.304
			C173.49,69.524,171.235,67.27,168.456,67.27z"/>
		<path d="M197.74,63.045l-64.872-42.053c-1.663-1.076-3.802-1.079-5.467-0.004L63.08,62.486c-2.335,1.507-3.007,4.623-1.501,6.96
			c1.505,2.335,4.623,3.005,6.958,1.501l56.835-36.668V86.81c0,2.781,2.253,5.035,5.034,5.035c2.779,0,5.034-2.253,5.034-5.035
			V34.662l56.822,36.834c0.846,0.549,1.796,0.812,2.733,0.812c1.65,0,3.264-0.81,4.23-2.297
			C200.74,67.676,200.072,64.558,197.74,63.045z"/>
	</g>
</g>
<g>
	<g>
		<path d="M65.697,167.324c0,3.842-1.793,5.891-5.635,5.891c-3.671,0-5.634-2.049-5.634-5.891v-1.963h-0.171
			c-2.049,5.293-7.086,7.854-13.147,7.854c-10.416,0-19.551-7.598-19.551-23.733c0-11.952,6.062-23.136,19.209-23.136
			c5.549,0,9.818,2.305,12.294,6.317h0.171v-16.904c0-4.098,2.476-6.232,6.231-6.232c3.757,0,6.232,2.134,6.232,6.232V167.324z
			 M43.927,163.482c7.257,0,9.989-6.488,9.989-13.574c0-6.402-2.391-13.915-9.989-13.83c-7.939,0-9.903,8.025-9.903,13.83
			C34.024,157.251,37.269,163.313,43.927,163.482z"/>
		<path d="M72.61,136.761c-0.427-1.365-0.854-2.731-0.854-4.609c0-3.244,2.903-5.806,6.062-5.806c4.61,0,5.294,2.476,6.147,6.062
			l6.573,27.319h0.171l5.293-24.844c1.024-4.866,2.049-8.708,7.854-8.537c5.891-0.171,7.086,3.586,8.196,8.537l5.378,24.844h0.171
			l6.146-27.319c0.769-3.586,1.537-6.062,6.147-6.062c3.158,0,6.062,2.562,6.062,5.806c0,1.878-0.427,3.244-0.854,4.609
			l-9.136,29.71c-1.792,5.891-3.158,6.744-8.11,6.744c-5.207,0-6.488-1.536-7.769-6.488l-6.146-24.502h-0.171l-6.147,24.502
			c-1.28,4.952-2.561,6.488-7.769,6.488c-4.952,0-6.317-0.854-8.11-6.744L72.61,136.761z"/>
		<path d="M152.602,152.128c0,6.574,4.269,11.354,11.525,11.354c9.391,0,9.391-6.146,14.428-6.146c2.988,0,5.122,2.562,5.122,4.866
			c0,7.513-12.037,11.013-19.55,11.013c-17.416,0-23.99-11.781-23.99-22.623c0-14.514,8.794-24.246,23.563-24.246
			c14.343,0,22.538,10.159,22.538,20.404c0,4.269-1.28,5.378-5.464,5.378H152.602z M174.457,144.957
			c-0.684-5.72-4.952-9.903-10.501-9.903c-6.232,0-9.988,3.842-11.354,9.903H174.457z"/>
		<path d="M194.944,115.759c0-4.098,2.476-6.232,6.232-6.232c3.756,0,6.231,2.134,6.231,6.232v51.224
			c0,4.098-2.476,6.231-6.231,6.231c-3.757,0-6.232-2.134-6.232-6.231V115.759z"/>
		<path d="M218.677,115.759c0-4.098,2.476-6.232,6.232-6.232c3.756,0,6.231,2.134,6.231,6.232v51.224
			c0,4.098-2.476,6.231-6.231,6.231c-3.757,0-6.232-2.134-6.232-6.231V115.759z"/>
		<path d="M258.459,126.346c9.477,0,19.038,3.756,19.038,9.477c0,2.902-1.963,5.464-5.208,5.464c-4.866,0-5.036-5.721-12.891-5.721
			c-4.354,0-7.172,1.195-7.172,3.842c0,2.903,2.817,3.586,6.659,4.439l5.208,1.195c7.086,1.622,15.538,4.61,15.538,13.318
			c0,10.159-9.818,14.854-19.209,14.854c-11.27,0-20.66-5.036-20.66-11.184c0-2.731,1.536-5.208,5.037-5.208
			c5.378,0,5.891,7.684,15.11,7.684c4.439,0,7.257-1.963,7.257-4.524c0-3.159-2.731-3.671-7.171-4.781l-7.343-1.792
			c-7.256-1.793-12.891-4.781-12.891-13.147C239.763,130.102,249.837,126.346,258.459,126.346z"/>
		<path d="M287.568,115.759c0-4.098,2.477-6.232,6.232-6.232c3.757,0,6.232,2.134,6.232,6.232v17.16h0.171
			c2.476-3.244,6.83-6.573,13.916-6.573c7.513,0,15.708,3.756,15.708,16.392v24.246c0,3.329-1.365,6.231-6.232,6.231
			c-4.866,0-6.231-2.902-6.231-6.231v-21.771c0-5.037-2.477-8.623-7.854-8.623c-4.354,0-9.477,3.586-9.477,9.818v20.575
			c0,3.329-1.366,6.231-6.232,6.231s-6.232-2.902-6.232-6.231V115.759z"/>
		<path d="M381.134,160.068c0,5.207,1.28,6.402,1.28,8.366c0,2.817-2.646,4.78-5.634,4.78c-5.379,0-7.172-3.414-7.343-7.256
			c-4.866,5.378-10.501,7.256-17.074,7.256c-7.086,0-14.087-4.866-14.087-12.72c0-10.33,7.854-13.233,17.416-14.343l7.599-0.854
			c2.988-0.342,5.378-1.025,5.378-4.61c0-3.586-3.671-5.123-7.854-5.123c-9.221,0-9.477,6.83-14.429,6.83
			c-3.158,0-5.293-2.22-5.293-4.78c0-4.952,7.001-11.27,19.807-11.27c11.952,0,20.233,3.842,20.233,12.806V160.068z
			 M368.669,151.104c-1.365,1.281-3.927,1.708-5.378,1.964l-4.524,0.683c-5.208,0.769-8.025,2.391-8.025,6.147
			c0,2.817,2.646,5.122,6.915,5.122c6.83,0,11.013-4.439,11.013-9.05V151.104z"/>
		<path d="M392.571,132.151c0-3.757,2.476-5.806,5.635-5.806c3.158,0,5.635,2.049,5.635,5.806v4.78h0.17
			c1.452-5.208,4.269-10.586,10.33-10.586c3.928,0,6.83,2.562,6.83,6.062c0,4.61-3.073,6.232-6.146,6.232h-2.22
			c-5.037,0-7.77,3.5-7.77,13.83v14.514c0,3.329-1.365,6.231-6.231,6.231s-6.232-2.902-6.232-6.231V132.151z"/>
		<path d="M436.196,152.128c0,6.574,4.269,11.354,11.525,11.354c9.391,0,9.391-6.146,14.428-6.146c2.988,0,5.122,2.562,5.122,4.866
			c0,7.513-12.037,11.013-19.55,11.013c-17.416,0-23.99-11.781-23.99-22.623c0-14.514,8.794-24.246,23.563-24.246
			c14.342,0,22.538,10.159,22.538,20.404c0,4.269-1.28,5.378-5.464,5.378H436.196z M458.052,144.957
			c-0.684-5.72-4.952-9.903-10.501-9.903c-6.232,0-9.988,3.842-11.354,9.903H458.052z"/>
	</g>
</g>
</svg>
