<?xml version="1.0" encoding="utf-8"?>
<!-- Generator: Adobe Illustrator 16.0.0, SVG Export Plug-In . SVG Version: 6.00 Build 0)  -->
<!DOCTYPE svg PUBLIC "-//W3C//DTD SVG 1.1//EN" "http://www.w3.org/Graphics/SVG/1.1/DTD/svg11.dtd">
<svg version="1.1" id="Layer_1" xmlns="http://www.w3.org/2000/svg" xmlns:xlink="http://www.w3.org/1999/xlink" x="0px" y="0px"
	 width="616px" height="105px" viewBox="0 0 616 105" enable-background="new 0 0 616 105" xml:space="preserve">
<g>
	<g>
		<path fill="#FFFFFF" d="M100.45,56.831c-2.032,0-3.679,1.648-3.679,3.68v21.273H48.52V60.511c0-2.031-1.647-3.68-3.678-3.68
			c-2.032,0-3.678,1.648-3.678,3.68v24.953c0,2.03,1.646,3.678,3.678,3.678h55.608c2.032,0,3.678-1.647,3.678-3.678V60.511
			C104.129,58.479,102.481,56.831,100.45,56.831z"/>
		<path fill="#FFFFFF" d="M121.849,53.744l-47.405-30.73c-1.215-0.785-2.778-0.788-3.995-0.003L23.448,53.336
			c-1.707,1.101-2.197,3.378-1.097,5.087c1.1,1.705,3.378,2.194,5.084,1.095l41.532-26.794V71.11c0,2.032,1.646,3.678,3.678,3.678
			c2.031,0,3.679-1.646,3.679-3.678V33.003l41.522,26.916c0.618,0.401,1.313,0.593,1.998,0.593c1.206,0,2.385-0.591,3.091-1.679
			C124.041,57.128,123.553,54.85,121.849,53.744z"/>
	</g>
</g>
<g>
	<g>
		<path fill="#FFFFFF" d="M193.971,83.036c0,3.842-1.793,5.891-5.635,5.891c-3.671,0-5.634-2.049-5.634-5.891v-1.963h-0.171
			c-2.049,5.293-7.086,7.854-13.147,7.854c-10.416,0-19.551-7.598-19.551-23.732c0-11.953,6.062-23.137,19.209-23.137
			c5.549,0,9.818,2.305,12.294,6.318h0.171V31.472c0-4.098,2.476-6.232,6.231-6.232c3.757,0,6.232,2.135,6.232,6.232V83.036z
			 M172.201,79.194c7.257,0,9.989-6.488,9.989-13.574c0-6.402-2.391-13.914-9.989-13.83c-7.939,0-9.903,8.025-9.903,13.83
			C162.298,72.964,165.542,79.024,172.201,79.194z"/>
		<path fill="#FFFFFF" d="M200.884,52.474c-0.427-1.365-0.854-2.732-0.854-4.609c0-3.244,2.903-5.807,6.062-5.807
			c4.61,0,5.294,2.477,6.147,6.063l6.573,27.318h0.171l5.293-24.844c1.024-4.865,2.049-8.707,7.854-8.537
			c5.891-0.17,7.086,3.586,8.196,8.537l5.378,24.844h0.171l6.146-27.318c0.769-3.586,1.537-6.063,6.147-6.063
			c3.158,0,6.062,2.563,6.062,5.807c0,1.877-0.427,3.244-0.854,4.609l-9.136,29.709c-1.792,5.891-3.158,6.744-8.11,6.744
			c-5.207,0-6.488-1.535-7.769-6.488l-6.146-24.502h-0.171l-6.147,24.502c-1.28,4.953-2.561,6.488-7.769,6.488
			c-4.952,0-6.317-0.854-8.11-6.744L200.884,52.474z"/>
		<path fill="#FFFFFF" d="M280.875,67.841c0,6.574,4.269,11.354,11.525,11.354c9.391,0,9.391-6.146,14.428-6.146
			c2.988,0,5.122,2.563,5.122,4.867c0,7.512-12.037,11.012-19.55,11.012c-17.416,0-23.99-11.781-23.99-22.623
			c0-14.514,8.794-24.246,23.563-24.246c14.343,0,22.538,10.16,22.538,20.404c0,4.27-1.28,5.379-5.464,5.379H280.875z
			 M302.731,60.669c-0.684-5.719-4.952-9.902-10.501-9.902c-6.232,0-9.988,3.842-11.354,9.902H302.731z"/>
		<path fill="#FFFFFF" d="M323.218,31.472c0-4.098,2.476-6.232,6.232-6.232c3.756,0,6.231,2.135,6.231,6.232v51.225
			c0,4.098-2.476,6.23-6.231,6.23c-3.757,0-6.232-2.133-6.232-6.23V31.472z"/>
		<path fill="#FFFFFF" d="M346.951,31.472c0-4.098,2.476-6.232,6.232-6.232c3.756,0,6.231,2.135,6.231,6.232v51.225
			c0,4.098-2.476,6.23-6.231,6.23c-3.757,0-6.232-2.133-6.232-6.23V31.472z"/>
		<path fill="#FFFFFF" d="M386.733,42.058c9.477,0,19.038,3.756,19.038,9.477c0,2.902-1.963,5.465-5.208,5.465
			c-4.866,0-5.036-5.721-12.891-5.721c-4.354,0-7.172,1.195-7.172,3.842c0,2.902,2.817,3.586,6.659,4.439l5.208,1.195
			c7.086,1.621,15.538,4.609,15.538,13.318c0,10.158-9.818,14.854-19.209,14.854c-11.27,0-20.66-5.035-20.66-11.184
			c0-2.73,1.536-5.207,5.037-5.207c5.378,0,5.891,7.684,15.11,7.684c4.439,0,7.257-1.963,7.257-4.525
			c0-3.158-2.731-3.67-7.171-4.781l-7.343-1.791c-7.256-1.793-12.891-4.781-12.891-13.148
			C368.037,45.813,378.111,42.058,386.733,42.058z"/>
		<path fill="#FFFFFF" d="M415.842,31.472c0-4.098,2.477-6.232,6.232-6.232c3.757,0,6.232,2.135,6.232,6.232v17.16h0.171
			c2.476-3.244,6.83-6.574,13.916-6.574c7.513,0,15.708,3.756,15.708,16.393v24.246c0,3.328-1.365,6.23-6.232,6.23
			c-4.866,0-6.231-2.902-6.231-6.23V60.925c0-5.037-2.477-8.623-7.854-8.623c-4.354,0-9.477,3.586-9.477,9.818v20.576
			c0,3.328-1.366,6.23-6.232,6.23s-6.232-2.902-6.232-6.23V31.472z"/>
		<path fill="#FFFFFF" d="M509.408,75.78c0,5.207,1.279,6.402,1.279,8.367c0,2.816-2.646,4.779-5.633,4.779
			c-5.379,0-7.172-3.414-7.343-7.256c-4.866,5.379-10.501,7.256-17.074,7.256c-7.086,0-14.087-4.865-14.087-12.719
			c0-10.33,7.854-13.234,17.416-14.344l7.599-0.854c2.988-0.342,5.378-1.025,5.378-4.609c0-3.586-3.671-5.123-7.854-5.123
			c-9.221,0-9.477,6.83-14.429,6.83c-3.158,0-5.293-2.221-5.293-4.781c0-4.951,7.001-11.27,19.807-11.27
			c11.952,0,20.234,3.842,20.234,12.807V75.78z M496.943,66.815c-1.365,1.281-3.927,1.709-5.378,1.965l-4.524,0.682
			c-5.208,0.77-8.025,2.391-8.025,6.148c0,2.816,2.646,5.121,6.915,5.121c6.83,0,11.013-4.439,11.013-9.049V66.815z"/>
		<path fill="#FFFFFF" d="M520.846,47.864c0-3.758,2.475-5.807,5.635-5.807c3.158,0,5.635,2.049,5.635,5.807v4.779h0.17
			c1.451-5.207,4.268-10.586,10.33-10.586c3.928,0,6.83,2.563,6.83,6.063c0,4.609-3.074,6.232-6.146,6.232h-2.221
			c-5.037,0-7.77,3.5-7.77,13.83v14.514c0,3.328-1.365,6.23-6.23,6.23c-4.867,0-6.232-2.902-6.232-6.23V47.864z"/>
		<path fill="#FFFFFF" d="M564.471,67.841c0,6.574,4.268,11.354,11.525,11.354c9.391,0,9.391-6.146,14.428-6.146
			c2.988,0,5.121,2.563,5.121,4.867c0,7.512-12.037,11.012-19.549,11.012c-17.416,0-23.99-11.781-23.99-22.623
			c0-14.514,8.793-24.246,23.563-24.246c14.342,0,22.539,10.16,22.539,20.404c0,4.27-1.281,5.379-5.465,5.379H564.471z
			 M586.326,60.669c-0.684-5.719-4.953-9.902-10.502-9.902c-6.232,0-9.988,3.842-11.354,9.902H586.326z"/>
	</g>
</g>
</svg>
